# xmcd
#
# Track frame offsets: 
#        150
#        19529
#        32293
#        51050
#        68393
#        84387
#        99057
#        135096
#        150546
#        164179
#        181218
#        200034
#        212186
#        225782
#        239475
#        254569
#        275306
#        290467
#        310138
#
# Disc length: 4366 seconds
#
# Revision: 1
# Processed by: cddbd v1.5.2PL0 Copyright (c) Steve Scherf et al.
# Submitted via: ExactAudioCopy v1.1
#
DISCID=ef110c13
DTITLE=John Williamson - In Symphony with the Sydney Symphony
DYEAR=2011
DGENRE=Country
TTITLE0=Overture - Islands Of Oceans
TTITLE1=Wintergreen
TTITLE2=Cootamundra Wattle
TTITLE3=Hawkesbury River Lovin'
TTITLE4=Salisbury Street
TTITLE5=Flower In The Water
TTITLE6=Boogie With M' Baby
TTITLE7=Tubbo Station
TTITLE8=You And My Guitar
TTITLE9=A Bushman Can't Survive
TTITLE10=Galleries Of Ping Galahs
TTITLE11=Cape York Peninsula
TTITLE12=Look Out Cunnamulla
TTITLE13=Prettiest Girl In The Kimberley
TTITLE14=Chandelier Of Stars
TTITLE15=Raining On The Rock
TTITLE16=Waltzing Matilda
TTITLE17=True Blue
TTITLE18=Old Man Emu
EXTD=
EXTT0=
EXTT1=
EXTT2=
EXTT3=
EXTT4=
EXTT5=
EXTT6=
EXTT7=
EXTT8=
EXTT9=
EXTT10=
EXTT11=
EXTT12=
EXTT13=
EXTT14=
EXTT15=
EXTT16=
EXTT17=
EXTT18=
PLAYORDER=
